# xmcd
#
# Track frame offsets: 
#        150
#        25121
#        51858
#        88594
#        117090
#        146249
#        166382
#        198199
#        230440
#        256890
#
# Disc length: 4291 seconds
#
# Revision: 0
# Processed by: cddbd v1.5.2PL0 Copyright (c) Steve Scherf et al.
# Submitted via: ExactAudioCopy v0.99pb5
#
DISCID=8010c10a
DTITLE=The Todd Wolfe Band - Live
DYEAR=2010
DGENRE=Blues
TTITLE0=Ready for love
TTITLE1=Crowded in my soul
TTITLE2=Cold black nigth
TTITLE3=Beg forgiveness
TTITLE4=Gates of heaven
TTITLE5=Roll over
TTITLE6=Black hearted woman
TTITLE7=Silver blue
TTITLE8=Change will come
TTITLE9=Shame
EXTD=
EXTT0=
EXTT1=
EXTT2=
EXTT3=
EXTT4=
EXTT5=
EXTT6=
EXTT7=
EXTT8=
EXTT9=
PLAYORDER=
